<svg version="1.0" xmlns="http://www.w3.org/2000/svg"
 width="218.000000pt" height="232.000000pt" viewBox="0 0 218.000000 232.000000"
 preserveAspectRatio="xMidYMid meet">

<g transform="translate(0.000000,232.000000) scale(0.100000,-0.100000)"
fill="#000000" stroke="none">
<path d="M962 2309 c-309 -52 -565 -285 -654 -596 -18 -64 -22 -104 -23 -218
0 -145 9 -194 54 -316 36 -95 86 -167 385 -550 320 -410 324 -414 401 -388 35
12 72 56 331 388 303 389 340 442 380 539 48 120 59 179 59 327 -1 162 -19
244 -84 374 -159 316 -508 497 -849 440z m278 -171 c127 -30 278 -128 356
-231 124 -165 171 -365 129 -561 -28 -131 -76 -207 -360 -571 -146 -187 -269
-340 -275 -340 -6 0 -129 153 -275 340 -284 364 -332 440 -360 571 -53 252 43
522 239 671 98 74 195 114 336 137 35 6 157 -3 210 -16z"/>
<path d="M983 1802 c-95 -34 -166 -107 -198 -203 -24 -71 -17 -188 13 -251 99
-201 366 -247 520 -89 61 63 85 122 90 216 5 99 -19 171 -79 238 -81 93 -229
131 -346 89z m177 -164 c59 -31 82 -65 88 -131 5 -69 -17 -120 -69 -154 -78
-52 -193 -22 -232 60 -25 51 -22 127 6 168 24 37 97 79 137 79 14 0 46 -10 70
-22z"/>
<path d="M567 351 c-135 -149 52 -305 411 -343 441 -46 821 168 626 352 -27
26 -33 28 -21 10 56 -83 -33 -168 -228 -217 -100 -25 -430 -25 -530 0 -192 49
-285 135 -229 215 24 34 10 26 -29 -17z"/>
</g>
</svg>